<svg width="101" height="66" viewBox="0 0 101 66" fill="none" xmlns="http://www.w3.org/2000/svg">
<g clip-path="url(#clip0_5_36)">
<path d="M4.55486 0H96.4451C98.9445 0 101 2.04302 101 4.52718V61.4728C101 63.957 98.9445 66 96.4451 66H4.55486C2.05551 66 0 63.957 0 61.4728V4.52718C0 2.04302 2.05551 0 4.55486 0ZM48.1229 35.3234C45.4105 35.3234 45.4105 30.4021 48.1229 30.4021H88.9412C91.6536 30.4021 91.6496 35.3234 88.9412 35.3234H48.1229ZM78.3362 45.3797C75.6257 45.3797 75.6257 40.4584 78.3362 40.4584H88.9412C91.6516 40.4584 91.6516 45.3797 88.9412 45.3797H78.3362ZM48.1229 45.3797C45.4105 45.3797 45.4105 40.4584 48.1229 40.4584H70.4672C73.1777 40.4584 73.1777 45.3797 70.4672 45.3797H48.1229ZM48.1249 55.4555C45.4105 55.4555 45.4125 50.5362 48.1249 50.5362H88.9846C91.695 50.5362 91.695 55.4555 88.9846 55.4555H48.1249ZM11.2244 9.80922H72.1361C73.01 9.80922 73.7261 10.5229 73.7261 11.3915V19.7851C73.7261 20.6517 73.008 21.3654 72.1361 21.3654H11.2244C10.3505 21.3654 9.63248 20.6556 9.63248 19.7851V11.3915C9.63248 10.5209 10.3486 9.80922 11.2244 9.80922ZM80.6146 9.80922H89.7756C90.6514 9.80922 91.3675 10.5229 91.3675 11.3915V19.7851C91.3675 20.6517 90.6495 21.3654 89.7756 21.3654H80.6146C79.7407 21.3654 79.0226 20.6556 79.0226 19.7851V11.3915C79.0226 10.5209 79.7387 9.80922 80.6146 9.80922ZM10.3998 55.4555C9.92443 55.4555 9.91852 54.9752 10.0033 54.6399C10.7174 49.0147 12.9051 49.2128 16.0436 48.4089C17.5527 48.0226 20.9989 46.5188 20.634 44.5797C19.8745 43.8797 19.119 42.9131 18.9868 41.4681L18.8961 41.4701C18.685 41.4662 18.4818 41.4191 18.2924 41.3113C17.8723 41.074 17.6434 40.6211 17.531 40.1015C17.4225 39.5898 17.3949 38.5918 17.531 38.0801C17.677 37.6742 17.8585 37.4546 18.0893 37.3586L18.0952 37.3566C17.9906 35.4038 18.322 33.3255 16.306 32.7177C20.2888 27.8258 24.8791 25.1652 28.3273 29.5179C32.1681 29.7178 33.8804 34.3313 31.4954 37.3586H31.3948C31.7144 37.4919 31.8919 37.8605 31.9787 38.1762C32.0458 38.6663 32.0931 39.4467 31.9511 40.1015C31.8426 40.6211 31.6118 41.074 31.1916 41.3113C31.0023 41.4191 30.7991 41.4662 30.588 41.4701L30.4953 41.4681C30.3651 42.9131 29.6076 43.8797 28.8481 44.5797C28.4832 46.5208 31.9334 48.0226 33.4424 48.4089C36.5829 49.2108 38.7726 49.0147 39.4867 54.6399C39.5695 54.9752 39.5636 55.4555 39.0882 55.4555H10.3998ZM96.4451 3.22138H4.55486C3.82695 3.22138 3.24107 3.8037 3.24107 4.52718V61.4728C3.24107 62.1963 3.82695 62.7786 4.55486 62.7786H96.4451C97.173 62.7786 97.7589 62.1963 97.7589 61.4728V4.52718C97.7589 3.8037 97.173 3.22138 96.4451 3.22138Z" fill="black"/>
</g>
<defs>
<clipPath id="clip0_5_36">
<rect width="101" height="66" fill="white"/>
</clipPath>
</defs>
</svg>
