<svg width="64" height="78" viewBox="0 0 64 78" fill="none" xmlns="http://www.w3.org/2000/svg">
<g clip-path="url(#clip0_5_42)">
<path d="M42.3465 8.24561C42.157 8.24561 41.9737 8.21387 41.8031 8.15039C40.9059 8.15039 40.173 7.41406 40.173 6.5127V3.27539H24.3136V6.5127C24.3136 7.36328 23.6691 8.06152 22.8413 8.14404C22.6644 8.20752 22.4749 8.24561 22.279 8.24561H16.3143V14.9297H47.6288V8.24561H42.3465ZM44.5896 77.5684C44.2989 77.835 43.9135 78 43.4902 78C43.4017 78 43.3196 77.9937 43.2374 77.981H3.62681V77.9873C2.64113 77.9873 1.73127 77.5747 1.06783 76.9146V76.9082H1.06151L1.05519 76.9019C0.404383 76.2417 0 75.334 0 74.3438V12.8477C0 11.8447 0.410702 10.9307 1.06783 10.2705C1.72495 9.61035 2.63481 9.19775 3.63313 9.19775H13.0603V7.40771C13.0603 6.74121 13.332 6.13184 13.7743 5.6875L13.7806 5.68115L13.7869 5.6748C14.2292 5.23682 14.8358 4.96387 15.4993 4.96387H21.0658V2.71045C21.0658 1.96777 21.3691 1.29492 21.8557 0.799805L21.862 0.793457C22.3422 0.304688 23.0119 0 23.7512 0H40.7416C41.4809 0 42.1507 0.304688 42.6435 0.799805L42.6498 0.793457C43.1363 1.28223 43.4396 1.96143 43.4396 2.71045V4.97021H48.4565C49.12 4.97021 49.7265 5.24316 50.1688 5.6875L50.1751 5.69385L50.1815 5.70019L50.1878 5.70654C50.6238 6.15088 50.8954 6.76025 50.8954 7.42676V9.2168H60.3226C61.3146 9.2168 62.2245 9.62939 62.8816 10.2895L62.8879 10.2832C63.5451 10.9434 63.9558 11.8574 63.9558 12.8604V56.7734C63.9874 56.9067 64.0063 57.04 64.0063 57.1797C64.0063 57.6748 63.7915 58.1128 63.444 58.4175L44.7286 77.4604C44.6844 77.4922 44.6338 77.5303 44.5896 77.5684ZM41.86 74.7183V60.4741C41.86 59.1157 42.416 57.8779 43.3069 56.9829C44.1978 56.0879 45.43 55.5293 46.7821 55.5293H60.6891V12.8477C60.6891 12.7461 60.6449 12.6572 60.5817 12.5874L60.588 12.5811H60.5817C60.5185 12.5176 60.4237 12.4795 60.3226 12.4795H50.8954V15.7612C50.8954 16.4277 50.6237 17.0371 50.1815 17.4814H50.1751L50.1688 17.4878L50.1625 17.4941C49.7202 17.9321 49.1136 18.2051 48.4502 18.2051H15.4929C14.8232 18.2051 14.2103 17.9321 13.7743 17.4878C13.7238 17.437 13.6732 17.3799 13.6353 17.3228C13.2815 16.8975 13.0603 16.3452 13.0603 15.7549V12.4731H3.62681C3.52572 12.4731 3.43726 12.5176 3.36776 12.5811C3.29825 12.6509 3.26034 12.7397 3.26034 12.8413V74.3311C3.26034 74.4326 3.29825 74.5278 3.36776 74.5913L3.37407 74.5977C3.43726 74.6611 3.53204 74.7056 3.63313 74.7056V74.7119L41.86 74.7183ZM45.1203 60.4741V72.395L58.4776 58.8047H46.7758C46.3209 58.8047 45.9038 58.9951 45.6069 59.2935C45.3036 59.5981 45.1203 60.0171 45.1203 60.4741ZM13.4394 53.7329C12.5359 53.7329 11.8093 52.9966 11.8093 52.0952C11.8093 51.1875 12.5422 50.4575 13.4394 50.4575H42.1254C43.0226 50.4575 43.7556 51.1938 43.7556 52.0952C43.7556 52.9966 43.0226 53.7329 42.1254 53.7329H13.4394ZM13.4394 31.7891C12.5359 31.7891 11.8093 31.0527 11.8093 30.1514C11.8093 29.25 12.5422 28.5137 13.4394 28.5137H50.51C51.4136 28.5137 52.1402 29.25 52.1402 30.1514C52.1402 31.0527 51.4072 31.7891 50.51 31.7891H13.4394ZM13.4394 42.7578C12.5359 42.7578 11.8093 42.0215 11.8093 41.1201C11.8093 40.2188 12.5422 39.4824 13.4394 39.4824H50.51C51.4136 39.4824 52.1402 40.2188 52.1402 41.1201C52.1402 42.0278 51.4072 42.7578 50.51 42.7578H13.4394Z" fill="black"/>
</g>
<defs>
<clipPath id="clip0_5_42">
<rect width="64" height="78" fill="white"/>
</clipPath>
</defs>
</svg>
