<svg width="77" height="81" viewBox="0 0 77 81" fill="none" xmlns="http://www.w3.org/2000/svg">
<g clip-path="url(#clip0_5_93)">
<path fill-rule="evenodd" clip-rule="evenodd" d="M76.4978 45.6162C77.4374 64.3817 70.4688 75.4748 58.1171 80.0964C46.1895 75.7604 39.1164 65.1606 39.6645 45.3306C46.2828 45.8207 52.8437 43.8112 58.0388 39.7029C63.3305 43.0392 70.0773 46.1939 76.4913 45.6162H76.4978ZM41.6351 8.20202L55.1417 20.7881H41.6351V8.20202ZM13.369 37.1844C13.5108 37.0296 13.683 36.9054 13.8749 36.8195C14.0668 36.7335 14.2744 36.6876 14.4848 36.6846H41.7917C42.0082 36.6852 42.2221 36.7319 42.419 36.8215C42.6159 36.911 42.7913 37.0414 42.9335 37.2038C43.2245 37.5433 43.3843 37.9748 43.3843 38.4209C43.3843 38.867 43.2245 39.2985 42.9335 39.638C42.8356 39.7409 42.7261 39.8324 42.6073 39.9106C42.0853 40.0079 41.5633 40.0858 41.0413 40.1572H14.5109C14.2941 40.1562 14.0799 40.1101 13.8821 40.0218C13.6844 39.9335 13.5073 39.8049 13.3625 39.6445C13.0656 39.3053 12.902 38.8707 12.902 38.4209C12.902 37.9711 13.0656 37.5365 13.3625 37.1973L13.369 37.1844ZM13.369 48.0438C13.5114 47.8811 13.6868 47.7502 13.8835 47.6596C14.0803 47.569 14.2941 47.5208 14.5109 47.518H33.518C33.5768 48.7059 33.6551 49.8678 33.7595 51.0037H14.5109C14.294 51.0035 14.0795 50.9577 13.8816 50.8694C13.6837 50.781 13.5068 50.652 13.3625 50.4909C13.0656 50.1517 12.902 49.7172 12.902 49.2674C12.902 48.8176 13.0656 48.383 13.3625 48.0438H13.369ZM13.369 58.8968C13.5126 58.7359 13.6882 58.6066 13.8849 58.5172C14.0815 58.4278 14.2947 58.3802 14.5109 58.3775H34.8361C35.084 59.5762 35.3646 60.7381 35.6778 61.8632H14.5109C14.2933 61.8634 14.0781 61.8172 13.88 61.7276C13.6819 61.638 13.5054 61.5072 13.3625 61.3439C13.0641 61.0046 12.9015 60.5679 12.9058 60.1171C12.9073 59.6681 13.0718 59.2347 13.369 58.8968ZM13.369 26.3249C13.5114 26.1622 13.6868 26.0313 13.8835 25.9407C14.0803 25.8501 14.2941 25.8019 14.5109 25.7991H30.1708C30.3857 25.7995 30.5982 25.8454 30.794 25.9338C30.9897 26.0223 31.1643 26.1511 31.3061 26.3119C31.606 26.6529 31.7687 27.0921 31.7628 27.5452C31.7631 27.9934 31.6009 28.4267 31.3061 28.7655C31.1633 28.9256 30.9887 29.0544 30.7932 29.1438C30.5978 29.2332 30.3858 29.2812 30.1708 29.2848H14.5109C14.2941 29.2838 14.0799 29.2377 13.8821 29.1493C13.6844 29.061 13.5073 28.9325 13.3625 28.772C13.0642 28.4301 12.9017 27.9915 12.9058 27.5387C12.9001 27.0826 13.0652 26.6406 13.369 26.2989V26.3249ZM13.369 16.2249C13.5114 16.0622 13.6868 15.9313 13.8835 15.8407C14.0803 15.7501 14.2941 15.7019 14.5109 15.6991H23.1238C23.3371 15.7004 23.5477 15.7461 23.7421 15.8333C23.9366 15.9205 24.1105 16.0473 24.2526 16.2054C24.5496 16.5446 24.7132 16.9792 24.7132 17.429C24.7132 17.8788 24.5496 18.3134 24.2526 18.6525C24.1104 18.8132 23.9358 18.9424 23.7403 19.0319C23.5447 19.1213 23.3325 19.169 23.1173 19.1718H14.5109C14.294 19.1716 14.0795 19.1259 13.8816 19.0375C13.6837 18.9491 13.5068 18.8201 13.3625 18.659C13.0656 18.3199 12.902 17.8853 12.902 17.4355C12.902 16.9857 13.0656 16.5511 13.3625 16.2119L13.369 16.2249ZM62.6584 22.5926C62.6553 22.108 62.4939 21.6377 62.1984 21.2524C61.903 20.8672 61.4896 20.588 61.0207 20.457L41.1196 1.15928C40.9113 0.900759 40.6471 0.692356 40.3466 0.549617C40.046 0.406879 39.717 0.333488 39.384 0.33492H4.66477C3.59185 0.33492 2.56287 0.758921 1.8042 1.51365C1.04553 2.26837 0.619314 3.292 0.619314 4.35934V73.2029C0.616627 73.7326 0.720284 74.2575 0.924205 74.7469C1.12813 75.2362 1.42821 75.6801 1.80685 76.0525C2.56631 76.804 3.59361 77.2263 4.66477 77.2274H43.6317C42.4038 75.8239 41.2951 74.3215 40.317 72.7356H5.13457V4.80722H37.1068V23.0534C37.1085 23.6514 37.3485 24.2243 37.7741 24.6465C38.1998 25.0687 38.7763 25.3058 39.3774 25.3058H58.1432V32.9782C59.67 33.9389 61.1751 34.8151 62.6584 35.607V22.5926ZM48.0817 58.0529L51.6117 58.0075C52.5513 58.1633 54.4827 59.8769 55.1613 60.6039C55.742 59.6822 56.3423 58.7994 56.9621 57.9426C57.6494 56.9906 58.3541 56.0818 59.0762 55.2164C59.8592 54.2687 60.6748 53.3664 61.51 52.5031C62.2343 51.7502 63.5393 50.2313 64.4854 49.8678C64.5132 49.8609 64.5424 49.8609 64.5702 49.8678H68.433C68.4936 49.8678 68.5516 49.8917 68.5945 49.9343C68.6373 49.9769 68.6614 50.0347 68.6614 50.095C68.6617 50.1255 68.6555 50.1558 68.6431 50.1838C68.6308 50.2118 68.6125 50.2369 68.5896 50.2572L67.8262 51.0816C66.6343 52.3798 65.4989 53.7148 64.4201 55.0865C63.3305 56.4562 62.293 57.8517 61.3143 59.2603C60.3355 60.6688 59.4155 62.0839 58.5412 63.5313C57.6668 64.9788 56.8316 66.4718 56.0552 67.9712L55.5658 68.9059C55.5368 68.9579 55.4889 68.997 55.4319 69.0151C55.3749 69.0331 55.3131 69.0289 55.2591 69.0033C55.215 68.9765 55.1789 68.9384 55.1547 68.8929L54.711 67.9452C54.314 67.0839 53.8652 66.2472 53.3669 65.4397C52.8829 64.65 52.3467 63.8932 51.7618 63.1743C51.1791 62.4584 50.5468 61.7838 49.8695 61.1556C49.1773 60.5172 48.4379 59.9314 47.6576 59.4031C47.6171 59.3748 47.5869 59.3342 47.5716 59.2873C47.5563 59.2405 47.5567 59.19 47.5728 59.1434L47.8533 58.2087C47.8688 58.1608 47.8993 58.1192 47.9405 58.0899C47.9816 58.0607 48.0312 58.0454 48.0817 58.0465V58.0529Z" fill="black"/>
</g>
<defs>
<clipPath id="clip0_5_93">
<rect width="75.9633" height="79.7615" fill="white" transform="translate(0.619263 0.3349)"/>
</clipPath>
</defs>
</svg>
