<svg width="66" height="67" viewBox="0 0 66 67" fill="none" xmlns="http://www.w3.org/2000/svg">
<g clip-path="url(#clip0_5_182)">
<path d="M31.6132 0C38.4189 0 44.7255 2.28092 49.8834 6.1602L47.8761 8.407C43.2495 5.03396 37.646 3.06019 31.6132 3.06019C23.6804 3.06019 16.499 6.46736 11.3035 11.9734C6.10259 17.4852 2.88759 25.0958 2.88759 33.5028C2.88759 41.9098 6.10259 49.5205 11.2981 55.0266C16.4936 60.5326 23.675 63.9398 31.6079 63.9398C39.5407 63.9398 46.7221 60.5326 51.9176 55.0266C55.4385 51.2952 58.047 46.5968 59.3674 41.3467C58.0578 40.5447 57.1775 39.043 57.1775 37.3196C57.1775 35.2093 58.5086 33.4232 60.3281 32.8601C60.1993 26.2448 58.0792 20.1529 54.5744 15.2213L56.5871 12.9688C60.6555 18.5204 63.1137 25.4656 63.2157 33.0137C64.8205 33.7076 65.9477 35.3742 65.9477 37.3196C65.9477 39.6517 64.3267 41.5856 62.212 41.9155C60.779 47.7856 57.8806 53.0357 53.9572 57.1937C48.2357 63.2572 40.335 67.0057 31.6025 67.0057C22.8753 67.0057 14.9693 63.2572 9.24781 57.1937C3.53703 51.1302 0 42.7517 0 33.5028C0 24.254 3.53703 15.8755 9.25854 9.81195C14.9801 3.74845 22.8807 0 31.6132 0ZM31.6132 27.6441C32.5632 27.6441 33.4596 27.9001 34.2432 28.3494C34.2808 28.2926 34.3237 28.2414 34.3666 28.1959L52.4758 8.00883C53.0233 7.4002 53.9357 7.37176 54.51 7.95764C55.0843 8.53782 55.1111 9.5048 54.5583 10.1134L36.4545 30.2948C36.4116 30.3403 36.3686 30.3858 36.3203 30.4256C36.8409 31.3186 37.1415 32.3709 37.1415 33.4972C37.1415 36.7337 34.6672 39.3559 31.6132 39.3559C28.5592 39.3559 26.0849 36.7337 26.0849 33.4972C26.0849 30.2663 28.5592 27.6441 31.6132 27.6441ZM33.5293 51.7161C35.1503 51.7161 36.5672 52.649 37.3294 54.0368C40.6088 53.013 43.5393 51.1302 45.8955 48.6389C49.5506 44.7653 51.8103 39.4128 51.8103 33.5028C51.8103 29.2311 50.6295 25.2494 48.5953 21.9105L50.6563 19.6068C53.2272 23.5544 54.7354 28.3438 54.7354 33.5028C54.7354 40.266 52.1484 46.3921 47.9619 50.8288C45.1978 53.7581 41.7359 55.948 37.8661 57.097C37.5333 59.3154 35.7246 61.0161 33.5347 61.0161C31.6132 61.0161 29.9869 59.7079 29.3912 57.8934C23.8951 57.3359 18.9626 54.7422 15.2699 50.8288C11.0888 46.3977 8.49639 40.2717 8.49639 33.5028C8.49639 27.9456 10.2408 22.8263 13.182 18.7138C12.9244 18.1223 12.7848 17.4681 12.7848 16.7742C12.7848 14.2088 14.7493 12.127 17.1699 12.127C17.9589 12.127 18.7049 12.3488 19.3436 12.7356C22.9021 10.3694 27.1047 9.00424 31.6132 9.00424C36.1539 9.00424 40.3833 10.3921 43.9579 12.7868L41.9023 15.0848C38.8912 13.1907 35.3703 12.1043 31.6132 12.1043C27.8347 12.1043 24.2923 13.2077 21.2651 15.1189C21.453 15.6366 21.555 16.194 21.555 16.7799C21.555 19.3452 19.5905 21.427 17.1699 21.427C16.4829 21.427 15.8281 21.2564 15.2484 20.9606C12.8385 24.4872 11.4162 28.8215 11.4162 33.5085C11.4162 39.4185 13.6758 44.7709 17.3309 48.6445C20.4976 52.0005 24.7109 54.2473 29.4073 54.7877C30.0191 52.9902 31.6347 51.7161 33.5293 51.7161ZM31.6132 17.963C33.8836 17.963 36.0359 18.509 37.9573 19.4874L36.009 21.6659C35.9446 21.7342 35.8856 21.8081 35.8265 21.8821C34.5169 21.3474 33.1 21.0573 31.6132 21.0573C28.3714 21.0573 25.4355 22.4509 23.3101 24.7034C21.1846 26.9559 19.8696 30.0672 19.8696 33.5028C19.8696 36.9384 21.1846 40.0498 23.3101 42.3023C25.4355 44.5548 28.3714 45.9484 31.6132 45.9484C34.8551 45.9484 37.791 44.5548 39.9164 42.3023C42.0418 40.0498 43.3568 36.9384 43.3568 33.5028C43.3568 31.8135 43.0401 30.2094 42.4658 28.7419C42.5625 28.6509 42.6537 28.5599 42.7449 28.4575L44.6342 26.3472C45.6862 28.4916 46.282 30.9261 46.282 33.5028C46.282 37.7917 44.6396 41.6766 41.9882 44.4865C39.3367 47.2965 35.6709 49.037 31.624 49.037C27.577 49.037 23.9112 47.2965 21.2598 44.4865C18.6083 41.6766 16.9659 37.7917 16.9659 33.5028C16.9659 29.214 18.6083 25.3291 21.2598 22.5191C23.9005 19.7035 27.5609 17.963 31.6132 17.963Z" fill="black"/>
</g>
<defs>
<clipPath id="clip0_5_182">
<rect width="65.953" height="67" fill="white"/>
</clipPath>
</defs>
</svg>
