<svg width="98" height="72" viewBox="0 0 98 72" fill="none" xmlns="http://www.w3.org/2000/svg">
<g clip-path="url(#clip0_4_22)">
<path fill-rule="evenodd" clip-rule="evenodd" d="M1.65885 21.2865H59.3359C60.2451 21.2865 60.9948 22.0382 60.9948 22.9498V61.2608C60.9948 62.1724 60.2531 62.924 59.3359 62.924H1.65885C0.749674 62.924 0 62.1724 0 61.2608V22.9498C0 22.0382 0.749674 21.2865 1.65885 21.2865ZM85.9255 36.6717H83.6764V32.1617H85.9255L86.1248 36.6717H85.9255ZM30.6011 15.2412H28.3521V10.7312H30.6011V15.2412ZM29.3729 8.47623H28.3521V7.45269V6.32519H29.4766H32.9538V8.58019H29.4766L29.3729 8.47623ZM35.2028 8.58019V6.32519H39.7008V8.58019H35.2028ZM41.9578 8.58019V6.32519H46.4559V8.58019H41.9578ZM48.7049 8.58019V6.32519H53.203V8.58019H48.7049ZM55.46 8.58019V6.32519H59.958V8.58019H55.46ZM62.207 8.58019V6.32519H66.7051V8.58019H62.207ZM68.4596 54.7037H72.3994V52.4487H68.4596L68.659 54.7037H68.4596ZM74.6484 54.7037V52.4487H79.1465V54.7037H74.8398H74.6484ZM81.4035 54.7037V52.4487H84.8009V52.4727H85.9255V53.5762V54.7037H84.8009H81.4035ZM85.9255 50.2097H83.6764V45.6997H85.9255L86.1248 50.2097H85.9255ZM85.9255 43.4447H83.6764V38.9347H85.9255L86.1248 43.4447H85.9255ZM95.097 19.4314C95.1369 19.4314 95.1768 19.4314 95.2087 19.4394C95.4559 19.0076 95.6792 18.5518 95.8866 18.072C95.8945 18.064 95.8945 18.056 95.9025 18.048C96.2056 17.3203 96.4448 16.5686 96.5964 15.785C96.716 15.1773 96.7957 14.5615 96.8197 13.9218H93.167C93.1032 15.785 92.5449 17.6162 91.5161 19.4234L95.097 19.4314ZM94.459 20.5988H90.7824C89.6659 22.2221 88.1585 23.8214 86.2764 25.4047C86.5715 25.3647 86.8665 25.3167 87.1536 25.2608C87.9432 25.1008 88.7009 24.8689 89.4346 24.5491C90.1763 24.2292 90.8701 23.8534 91.5161 23.4216C92.1621 22.9898 92.7523 22.502 93.3026 21.9502C93.7253 21.5264 94.1161 21.0786 94.459 20.5988ZM83.1341 25.4047C81.252 23.8214 79.7446 22.2221 78.6281 20.5988H74.9515C75.3024 21.0786 75.6932 21.5264 76.1159 21.9502C76.6662 22.502 77.2563 22.9898 77.9023 23.4216C78.5404 23.8534 79.2342 24.2292 79.9839 24.5491C79.9919 24.5571 79.9998 24.5571 80.0078 24.5651C80.7336 24.8689 81.4832 25.1088 82.2648 25.2608C82.5519 25.3167 82.847 25.3647 83.1421 25.4047H83.1341ZM74.1779 19.4314H77.8784C76.8496 17.6242 76.2913 15.785 76.2275 13.9298H72.5749C72.6068 14.5695 72.6786 15.1853 72.7982 15.793C72.9577 16.5846 73.189 17.3443 73.508 18.08C73.7074 18.5518 73.9307 18.9996 74.1779 19.4314ZM72.5749 12.7543H76.2515C76.387 10.9311 76.9932 9.09996 78.0698 7.25278H74.1779C73.9307 7.68458 73.7074 8.13239 73.508 8.60418C73.5 8.61217 73.5 8.62017 73.492 8.62817C73.189 9.35584 72.9497 10.1075 72.7982 10.8912C72.6786 11.4989 72.5988 12.1146 72.5749 12.7543ZM74.9355 6.0853H78.8195C79.9281 4.48601 81.3875 2.87872 83.2059 1.26344C82.8789 1.30342 82.5599 1.3514 82.2489 1.41537C81.4593 1.5753 80.7017 1.8072 79.9679 2.12705C79.2262 2.44691 78.5324 2.82275 77.8864 3.25455C77.2404 3.68636 76.6502 4.17414 76.0999 4.7259C75.6772 5.14171 75.2865 5.58952 74.9355 6.0853ZM86.1807 1.25544C88.007 2.87072 89.4665 4.47801 90.5671 6.0773H94.451C94.1001 5.59751 93.7093 5.14971 93.2866 4.7259C92.7363 4.17414 92.1462 3.68636 91.5002 3.25455C90.8621 2.82275 90.1683 2.44691 89.4186 2.12705C89.4107 2.11906 89.4027 2.11906 89.3947 2.11106C88.6689 1.8072 87.9193 1.5673 87.1377 1.41537C86.8187 1.3514 86.4997 1.30342 86.1807 1.25544ZM95.2166 7.25278H91.3247C92.4014 9.09996 93.0075 10.9311 93.1431 12.7543H96.8197C96.7878 12.1146 96.716 11.4989 96.5964 10.8912C96.4369 10.0995 96.2056 9.33985 95.8866 8.60418C95.6872 8.13239 95.4639 7.68458 95.2166 7.25278ZM82.0256 0.263883C82.8869 0.0879609 83.7801 0 84.6973 0C85.6144 0 86.4997 0.0879609 87.369 0.263883C88.2223 0.431808 89.0438 0.687694 89.8493 1.03154C89.8573 1.03154 89.8732 1.03954 89.8812 1.04753C90.6787 1.39138 91.4364 1.8072 92.1462 2.27899C92.856 2.75078 93.5099 3.29454 94.1081 3.89427C94.7142 4.494 95.2485 5.14971 95.7191 5.86139C96.1976 6.57308 96.6043 7.33274 96.9473 8.13239C97.2982 8.94802 97.5534 9.78765 97.7288 10.6513C97.9043 11.5149 97.992 12.4105 97.992 13.3301C97.992 14.2497 97.9043 15.1373 97.7288 16.0089C97.5614 16.8645 97.3062 17.6881 96.9632 18.4958C96.9632 18.5038 96.9552 18.5198 96.9473 18.5278C96.6043 19.3354 96.1896 20.0871 95.7191 20.7988C95.2485 21.5104 94.7062 22.1661 94.1081 22.7659C93.5099 23.3736 92.856 23.9094 92.1462 24.3812C91.4364 24.861 90.6787 25.2688 89.8812 25.6126C89.0677 25.9645 88.2303 26.2203 87.369 26.3963C86.5077 26.5722 85.6144 26.6602 84.6973 26.6602C83.7801 26.6602 82.8949 26.5722 82.0256 26.3963C81.1722 26.2283 80.3507 25.9725 79.5452 25.6286C79.5373 25.6286 79.5213 25.6206 79.5133 25.6126C78.7158 25.2688 77.9582 24.853 77.2484 24.3812C76.5386 23.9094 75.8846 23.3656 75.2865 22.7659C74.6803 22.1661 74.146 21.5104 73.6755 20.7988C73.1969 20.0871 72.7902 19.3274 72.4473 18.5278C72.0964 17.7121 71.8411 16.8725 71.6657 16.0089C71.4902 15.1453 71.4025 14.2497 71.4025 13.3301C71.4025 12.4105 71.4902 11.5229 71.6657 10.6513C71.8332 9.79565 72.0884 8.97201 72.4313 8.16437C72.4313 8.15637 72.4393 8.14038 72.4473 8.13239C72.7902 7.32474 73.2049 6.57308 73.6755 5.86139C74.146 5.14971 74.6883 4.494 75.2865 3.89427C75.8846 3.28654 76.5386 2.75078 77.2484 2.27899C77.9582 1.7992 78.7158 1.39138 79.5133 1.04753C80.3188 0.695691 81.1642 0.439805 82.0256 0.263883ZM85.2795 2.0151V6.0773H89.1395C88.1266 4.7339 86.8426 3.3825 85.2795 2.0151ZM85.2795 7.25278V12.7543H91.9787C91.8271 10.9471 91.1572 9.11595 89.9609 7.25278H85.2795ZM85.2795 13.9218V19.4234H90.1523C91.3088 17.6002 91.9229 15.769 91.9946 13.9218H85.2795ZM85.2795 20.5988V24.709C86.9303 23.3496 88.2861 21.9742 89.3389 20.5988H85.2795ZM84.1151 24.709V20.5988H80.0557C81.1004 21.9742 82.4562 23.3496 84.1151 24.709ZM84.1151 19.4314V13.9298H77.3919C77.4637 15.777 78.0858 17.6082 79.2342 19.4314H84.1151ZM84.1151 12.7543V7.25278H79.4336C78.2373 9.11595 77.5674 10.9471 77.4159 12.7543H84.1151ZM84.1151 6.0853V2.0151C82.5519 3.3825 81.2679 4.7339 80.255 6.0773H84.1151V6.0853ZM22.9767 65.219H38.0181C38.0579 67.8259 39.1266 70.1608 42.0296 72H18.9652C21.286 70.3128 22.9847 68.2577 22.9767 65.219ZM30.4974 57.3185C31.6698 57.3185 32.6268 58.2781 32.6268 59.4536C32.6268 60.6291 31.6698 61.5886 30.4974 61.5886C29.325 61.5886 28.368 60.6291 28.368 59.4536C28.368 58.2781 29.3171 57.3185 30.4974 57.3185ZM4.98454 24.4211H56.0023C56.8078 24.4211 57.4697 25.0849 57.4697 25.8925V54.5198C57.4697 55.3274 56.8078 55.9911 56.0023 55.9911H4.98454C4.17904 55.9911 3.51709 55.3274 3.51709 54.5198V25.8925C3.51709 25.0769 4.17904 24.4211 4.98454 24.4211Z" fill="black"/>
</g>
<defs>
<clipPath id="clip0_4_22">
<rect width="98" height="72" fill="white"/>
</clipPath>
</defs>
</svg>
