<svg width="75" height="68" viewBox="0 0 75 68" fill="none" xmlns="http://www.w3.org/2000/svg">
<g clip-path="url(#clip0_5_47)">
<path fill-rule="evenodd" clip-rule="evenodd" d="M42.4277 1.34083C44.2457 2.40476 45.9086 4.11188 47.2671 6.46427L47.4092 6.73032L47.5729 7.01516L73.0868 51.4037C78.025 59.6814 72.9105 68.0999 63.3933 67.9824V68H10.7644C10.6333 68 10.5037 67.9941 10.3752 67.9836C1.71738 67.8663 -2.26305 59.9131 1.30649 52.3032C1.42983 52.0383 1.57251 51.7932 1.71899 51.5399L27.7562 6.45091L27.7484 6.44622C29.099 4.12964 30.7832 2.41694 32.6426 1.33863C35.7112 -0.440262 39.362 -0.452882 42.4277 1.34083ZM37.4561 49.7776C39.3663 49.7776 40.9149 51.3289 40.9149 53.2426C40.9149 55.1564 39.3663 56.7078 37.4561 56.7078C35.5458 56.7078 33.9972 55.1564 33.9972 53.2426C33.9972 51.3289 35.5458 49.7776 37.4561 49.7776ZM40.04 44.5858C39.9237 47.507 34.9854 47.5106 34.8723 44.5849C34.3728 39.5796 33.0956 28.2164 33.136 23.5131C33.1776 22.0641 34.3766 21.2056 35.9103 20.8782C36.3836 20.7776 36.9036 20.728 37.4274 20.7287C37.954 20.7299 38.4752 20.7818 38.9489 20.8829C40.5336 21.2209 41.7774 22.1144 41.7774 23.5898L41.7711 23.7373L40.04 44.5858ZM5.50723 54.2708L31.7672 8.7964C34.9515 3.33573 40.0033 3.17754 43.2481 8.7964L69.0731 53.7259C71.5892 57.8767 70.5438 63.4459 63.3933 63.3362H10.7644C5.92794 63.4471 3.02403 59.5655 5.50723 54.2708Z" fill="black"/>
</g>
<defs>
<clipPath id="clip0_5_47">
<rect width="75" height="68" fill="white"/>
</clipPath>
</defs>
</svg>
