<svg width="94" height="90" viewBox="0 0 94 90" fill="none" xmlns="http://www.w3.org/2000/svg">
<g clip-path="url(#clip0_5_50)">
<path d="M7.47359 6.98571C6.64742 6.98571 5.98189 6.32367 5.98189 5.50182C5.98189 4.67997 6.64742 4.01793 7.47359 4.01793H47.1834V1.48389C47.1834 0.662044 47.8489 0 48.6751 0C49.5013 0 50.1668 0.662044 50.1668 1.48389V4.01793H87.1303C87.9565 4.01793 88.622 4.67997 88.622 5.50182C88.622 6.32367 87.9565 6.98571 87.1303 6.98571H83.6956V44.882H87.291C88.1171 44.882 88.7827 45.5441 88.7827 46.3659C88.7827 47.1878 88.1171 47.8498 87.291 47.8498H50.3733V52.058C50.4498 52.1113 50.5034 52.1645 50.5569 52.2178L59.6984 60.8624C60.2874 61.4179 60.3103 62.3768 59.7519 62.9551C59.1935 63.5411 58.2296 63.5639 57.6482 63.0084L50.3963 56.1444V63.6704C50.3963 64.4923 49.7308 65.1543 48.9046 65.1543C48.0784 65.1543 47.4129 64.4923 47.4129 63.6704V55.8476L39.8473 63.0084C39.2583 63.5639 38.302 63.5639 37.7436 62.9551C37.1852 62.3692 37.1852 61.4179 37.7972 60.8624L46.9386 52.2178C47.0686 52.0884 47.2599 51.9819 47.4205 51.8982V47.8498H27.164C26.3378 47.8498 25.6723 47.1878 25.6723 46.3659C25.6723 45.5441 26.3378 44.882 27.164 44.882H80.7045V6.98571H7.47359ZM59.0328 80.5259C52.3852 80.5259 56.7609 81.0434 57.6712 73.8598C59.0252 63.1149 69.2911 63.1149 70.8058 73.8598C71.7773 80.7694 75.9464 80.5259 69.4441 80.5259H66.8509C66.8432 82.2838 66.5678 83.1817 68.4038 84.171C69.337 84.6732 71.0812 85.0537 72.5729 85.632C74.8448 83.6992 78.8763 84.97 79.297 81.4315C79.3582 80.8912 78.0807 78.8366 77.79 77.8473C77.1627 76.8504 76.9409 75.2752 77.6217 74.2175C77.8971 73.7989 77.7747 72.277 77.7747 71.6987C77.7747 65.9762 87.8571 65.9762 87.8571 71.6987C87.8571 72.4216 87.6888 73.7533 88.0865 74.324C88.7444 75.2752 88.4078 76.9646 87.8494 77.8473C87.4899 78.8822 86.1359 80.8455 86.2506 81.4315C87.2298 86.3854 94.0151 81.0814 94.0151 89.9924H74.9596H74.9519H71.8691H71.0429H53.4944H53.4868H36.6344H15.3681C15.3681 80.9292 23.9664 85.9516 24.6243 80.3966C24.6932 79.7878 23.2627 77.4896 22.9337 76.3786C22.2299 75.26 21.9775 73.4945 22.7501 72.315C23.0561 71.8432 22.9261 70.1387 22.9261 69.4918C22.9261 63.0769 34.2247 63.0769 34.2247 69.4918C34.2247 70.3061 34.0335 71.7976 34.4772 72.4292C35.2192 73.4945 34.8367 75.3894 34.2094 76.3786C33.8116 77.5429 32.2893 79.7345 32.4194 80.3966C32.8937 82.7936 38.8987 84.4221 40.9948 85.3048C42.1728 84.7036 43.129 83.9883 43.2285 83.1589C43.282 82.7251 42.257 81.089 42.0275 80.2976C41.5302 79.5062 41.3466 78.243 41.8974 77.3983C42.1116 77.0635 42.0198 75.8459 42.0198 75.3894C42.0198 70.8235 50.0673 70.8159 50.0673 75.3894C50.0673 75.9677 49.9373 77.0255 50.2509 77.482C50.7788 78.243 50.5034 79.5899 50.0597 80.29C49.7767 81.1195 48.6904 82.6795 48.7822 83.1513C49.3712 86.1495 52.63 84.4449 54.1676 86.5376C55.6211 85.3961 58.5127 85.0841 60.2797 84.034C61.8938 83.0752 61.6185 82.1087 61.6108 80.5107L59.0328 80.5259ZM0.00744665 35.5602C-0.206746 31.4281 3.20504 30.3399 7.84078 30.6291L13.7005 37.1201L19.4301 30.7052L33.6357 30.6291C38.9905 31.2378 37.8737 36.831 33.6357 37.0441H24.3413L22.1534 50.1099L20.5011 58.61C20.0727 60.0178 19.2236 60.9157 17.969 61.3951L9.89091 61.4484C8.26152 61.2125 7.3053 60.2537 7.01461 58.5871L5.76005 51.5481C2.45536 51.8678 1.3385 49.5316 0.986613 46.1681L0.0380456 35.5373L0.00744665 35.5602ZM13.3639 12.9517C17.3341 12.9517 20.5623 16.163 20.5623 20.1125C20.5623 24.0619 17.3341 27.2732 13.3639 27.2732C9.39368 27.2732 6.16549 24.0619 6.16549 20.1125C6.16549 16.163 9.38603 12.9517 13.3639 12.9517ZM13.624 34.0763L9.06474 29.0919L10.3958 28.0342C12.3694 28.856 14.3431 28.856 16.2861 28.0342L18.122 29.1223L13.624 34.0763Z" fill="black"/>
</g>
<defs>
<clipPath id="clip0_5_50">
<rect width="94" height="90" fill="white"/>
</clipPath>
</defs>
</svg>
